<svg width="144" height="144" viewBox="0 0 144 144" fill="none" xmlns="http://www.w3.org/2000/svg">
<path opacity="0.5" d="M46.3265 25.1757C47.3804 23.6136 49.1417 22.6772 51.0262 22.6772H98.0265C102.569 22.6772 105.267 27.7518 102.726 31.5172L65.7654 86.3005C64.7115 87.8627 62.9502 88.7991 61.0657 88.7991H14.0653C9.5231 88.7991 6.82523 83.7244 9.36563 79.959L46.3265 25.1757Z" fill="#DA4BDD"/>
<path d="M53.6834 94.9271C51.799 94.9271 50.0377 95.8635 48.9837 97.4257L39.3548 111.698C36.8144 115.463 39.5123 120.538 44.0545 120.538H93.9332C95.8176 120.538 97.5789 119.601 98.6329 118.039L135.594 63.256C138.134 59.4906 135.436 54.416 130.894 54.416H97.6632C95.7787 54.416 94.0174 55.3523 92.9635 56.9145L69.003 92.4286C67.949 93.9908 66.1877 94.9271 64.3033 94.9271H53.6834Z" fill="#DA4BDD"/>
</svg>
